<?xml version="1.0" encoding="utf-8"?>
<!-- Generator: Adobe Illustrator 16.0.0, SVG Export Plug-In . SVG Version: 6.00 Build 0)  -->
<!DOCTYPE svg PUBLIC "-//W3C//DTD SVG 1.1//EN" "http://www.w3.org/Graphics/SVG/1.1/DTD/svg11.dtd">
<svg version="1.1" id="Layer_1" xmlns="http://www.w3.org/2000/svg" xmlns:xlink="http://www.w3.org/1999/xlink" x="0px" y="0px"
	 width="840px" height="277.333px" viewBox="0 0 840 277.333" enable-background="new 0 0 840 277.333" xml:space="preserve">
<g>
	<g>
		<g id="XMLID_1_">
			<g>
				<path fill="#006837" d="M189.666,270.211c-62.555,0-125.103,0-187.658,0c3.619-10.224,10.015-16.759,21.538-17.671
					c2.745-0.225,6.14-2.521,7.756-4.88c8.391-12.288,16.681-15.319,31.003-10.711c4.068,1.308,8.19,2.568,12.389,3.311
					c1.284,0.224,3.866-1.06,4.191-2.15c3.093-10.324,5.56-20.841,8.746-31.134c3.256-10.502-0.796-19.125-6.001-27.624
					c-0.982-1.608-2.126-3.116-3.178-4.687c-4.632-6.867-8.886-12.628-19.38-11.538c-12.142,1.269-22.311-5.591-31.235-13.564
					c-4.006-3.58-3.875-5.166,0.247-8.63c15.459-13,42.193-3.975,47.537,15.56c-6.125-2.344-12.582-4.818-19.032-7.285
					c-0.371,0.634-0.735,1.276-1.106,1.91c18.815,5.684,26.649,21.661,36.316,38.024c3.24-14.144,6.627-27.112,9.094-40.251
					c2.289-12.165-4.106-21.854-10.71-31.228c-0.982-1.4-2.142-2.676-3.209-4.029c-4.238-5.383-8.499-8.878-16.673-8.19
					c-13.186,1.106-23.95-5.9-33.416-14.678c-3.349-3.101-1.454-5.406,1.129-7.618c10.069-8.661,27.299-7.919,38.404,1.64
					c5.212,4.478,7.904,8.739,9.025,14.005c-5.877-2.335-11.979-4.764-18.081-7.192c-0.294,0.549-0.595,1.098-0.889,1.647
					c17.214,7.2,27.747,20.826,36.609,37.437c0.557-5.459,1.16-10.224,1.508-15.002c1.369-18.831-0.34-37.391-5.336-55.595
					c-0.464-1.702-2.413-3.851-4.045-4.246c-19.959-4.849-32.434-18.359-41.752-35.574c-4.037-7.455-2.978-9.689,5.205-12.133
					c1.763-0.526,3.472-1.253,5.212-1.887c3.782,0,7.556,0,11.337,0c12.149,3.264,22.249,9.497,29.441,20.061
					c5.599,8.213,8.189,17.191,7.331,28.784c-6.782-11.09-14.825-18.738-26.394-22.009c2.166,1.81,4.338,3.611,6.496,5.429
					c10.904,9.203,16.619,21.576,19.094,35.047c2.614,14.276,3.472,28.869,5.065,43.322c0.139,1.284,0.015,2.599,0.448,4.099
					c7.873-13.101,15.846-25.876,32.279-30.462c-6.071-1.338-12.219,0.704-20.022,6.249c0.209-6.357,5.305-13.186,13.526-18.111
					c10.772-6.45,24.398-5.901,33.369,1.33c4.362,3.519,4.501,5.228,0.271,8.963c-10.239,9.04-21.677,14.933-35.914,13.897
					c-1.817-0.132-4.292,1.191-5.591,2.622c-8.855,9.79-15.769,20.826-19.179,33.679c-4.833,18.227-9.35,36.54-13.967,54.822
					c-0.278,1.083-0.309,2.22-0.363,2.645c3.24-3.844,6.465-7.896,9.813-11.901l1.779,1.477c-2.219,2.707-4.068,5.723-5.437,9.118
					c-4.338,10.757-8.437,21.692-11.399,32.874c-1.957,7.37,0.302,8.777,7.942,7.378c4.393-0.805,8.785-1.547,13.186-2.281
					c10.471-1.74,19.705,1.291,28.064,7.439c8.731,6.435,17.446,12.312,28.861,13.673
					C182.497,255.409,188.653,260.722,189.666,270.211z"/>
				<path fill="#006837" d="M172.111,155.727c3.642,3.858,3.588,5.529-0.797,8.606c-11.53,8.09-23.973,12.397-38.318,9.327
					c-2.057-0.441-4.787,0.263-6.667,1.354c-5.212,3.023-9.937,6.658-13.634,11.174l-1.779-1.477
					c2.606-3.124,5.282-6.21,8.112-9.156c6.659-6.937,15.196-10.997,25.072-12.737c-4.841-2.676-13.634-0.255-21.661,4.191
					c3.434-8.862,9.527-13.835,17.276-17.137C151.022,145.046,164.339,147.482,172.111,155.727z"/>
			</g>
			<g>
			</g>
		</g>
	</g>
	<g id="XMLID_2_">
		<g>
			<path fill="#8CC63F" d="M189.665,270.183c-62.555,0-125.11,0-187.665,0c3.619-10.224,10.015-16.759,21.545-17.679
				c2.738-0.217,6.141-2.514,7.749-4.872c8.391-12.288,16.681-15.32,31.003-10.711c4.076,1.307,8.197,2.567,12.389,3.303
				c1.284,0.231,3.867-1.052,4.199-2.143c3.094-10.324,5.553-20.842,8.747-31.135c3.256-10.502-0.796-19.124-6.001-27.623
				c-0.982-1.608-2.134-3.125-3.186-4.687c-4.625-6.875-16.124-17.408-22.96-23.548c9.404,2.846,16.062,8.259,21.583,15.01
				c5.514,6.752,9.891,14.833,14.725,23.015c3.24-14.145,6.627-27.113,9.102-40.252c2.281-12.165-4.114-21.854-10.71-31.228
				c-0.99-1.407-2.15-2.683-3.209-4.029c-4.246-5.382-14.407-16.116-20.509-20.393c17.214,7.208,27.747,20.834,36.617,37.445
				c0.549-5.46,1.152-10.224,1.5-15.003c1.376-18.831-0.34-37.398-5.329-55.595c-0.44-1.593-10.633-23.586-13.247-26.657
				c2.026,1.693,4.06,3.379,6.071,5.081c10.904,9.203,16.626,21.576,19.094,35.048c2.614,14.276,3.48,28.861,5.065,43.322
				c0.147,1.284,0.023,2.598,0.449,4.099c7.795-12.977,15.691-25.636,31.815-30.322c-2.745,1.415-12.675,13.471-13.889,14.809
				c-8.854,9.791-15.768,20.818-19.187,33.679c-4.833,18.22-9.342,36.532-13.966,54.814c-0.271,1.082-0.309,2.227-0.363,2.652
				c5.769-6.836,11.461-14.322,17.934-21.058c6.658-6.938,15.188-11.005,25.064-12.745c-3.983,2.003-14.005,10.015-15.884,11.105
				c-8.345,4.841-17.3,12.35-20.95,21.391c-4.338,10.749-8.438,21.691-11.407,32.874c-1.957,7.37,0.301,8.777,7.942,7.378
				c4.393-0.805,8.793-1.555,13.193-2.281c10.463-1.74,19.705,1.291,28.057,7.439c8.739,6.426,17.454,12.312,28.869,13.672
				C182.497,255.381,188.645,260.693,189.665,270.183z"/>
			<path d="M148.964,90.49c-0.154,0.046-0.309,0.085-0.464,0.14C148.694,90.529,148.849,90.482,148.964,90.49z"/>
			<path d="M86.007,33.402c-0.139-0.116-0.278-0.232-0.417-0.348C85.69,33.078,85.83,33.201,86.007,33.402z"/>
		</g>
		<g>
		</g>
	</g>
	<g id="XMLID_3_">
		<g>
			<path fill="#603813" d="M189.665,270.211c-62.555,0-125.11,0-187.665,0c3.619-10.224,10.015-16.758,21.545-17.679
				c2.738-0.217,6.14-2.514,7.749-4.872c8.391-12.288,16.681-15.319,31.003-10.711c4.075,1.308,8.197,2.568,12.389,3.303
				c1.284,0.231,4.199-2.143,4.199-2.143c1.678-2.227,8.754-7.045,24.561-2.97c1.331,0.341,11.886-1.662,13.572-1.964
				c10.448-1.825,19.674,1.392,28.026,7.54c8.738,6.427,17.454,12.312,28.868,13.673
				C182.497,255.409,188.645,260.722,189.665,270.211z"/>
		</g>
		<g>
		</g>
	</g>
</g>
<text transform="matrix(1 0 0 1 200.9141 174.1143)"><tspan x="0" y="0" fill="#006837" font-family="'EurostileRegular'" font-size="123">Code</tspan><tspan x="260.174" y="0" fill="#8CC63F" font-family="'EurostileRegular'" font-size="123">Garden</tspan><tspan x="0" y="57.6" fill="#603813" font-family="'EurostileRegular'" font-size="48">computing technologies</tspan></text>
</svg>
